<svg
  xmlns="http://www.w3.org/2000/svg"
  viewBox="0 0 103 72"
>
  <defs>
    <linearGradient
      id="gradient-block"
      x1="-4.271%"
      x2="105.876%"
      y1="105.276%"
      y2="-6.885%"
    >
      <stop
        offset="6%"
        stop-color="#00572D"
      />
      <stop
        offset="13.77%"
        stop-color="#006134"
      />
      <stop
        offset="31.27%"
        stop-color="#007541"
      />
      <stop
        offset="40%"
        stop-color="#007D46"
      />
      <stop
        offset="56.35%"
        stop-color="#629D43"
      />
      <stop
        offset="70.82%"
        stop-color="#92BD3D"
      />
      <stop
        offset="78%"
        stop-color="#A6CE39"
      />
    </linearGradient>
  </defs>
  <path
    fill="url(#gradient-block)"
    d="M66.437 3.2c0-1.762 1.425-3.2 3.17-3.2h29.96c1.745 0 3.17 1.438 3.17 3.2v30.232c0 1.761-1.425 3.2-3.17 3.2h-29.96c-1.745 0-3.17-1.439-3.17-3.2V3.199Zm30.248 2.908H72.489v24.431h24.212V6.108h-.016Z"
  />
  <g fill="#00572D">
    <path
      d="M5.797 36.938c-1.602 0-2.979-.565-4.1-1.713C.56 34.095 0 32.721 0 31.121V17.807C0 16.19.56 14.8 1.697 13.67c1.137-1.131 2.498-1.697 4.1-1.697 1.6 0 2.978.566 4.099 1.713 1.12 1.147 1.681 2.52 1.681 4.12v2.78H7.782v-2.86a2.11 2.11 0 0 0-.608-1.503 2.024 2.024 0 0 0-1.49-.63c-.576 0-1.072.21-1.473.63-.4.42-.608.921-.608 1.503v13.363c0 .582.208 1.082.608 1.486.4.404.897.614 1.473.614.577 0 1.073-.21 1.49-.614.416-.404.608-.904.608-1.486v-4.8H5.75v-3.7h5.812v8.532c0 1.616-.56 3.006-1.697 4.137-1.137 1.115-2.498 1.68-4.067 1.68ZM19.28 12.232c2.033 0 3.522.565 4.483 1.697.832.985 1.249 2.359 1.249 4.12v3.539c0 1.729-.657 3.183-1.954 4.379l2.706 10.648h-3.939l-2.21-9.194h-2.433v9.194H13.53v-24.4h5.748v.017Zm2.177 5.882c0-1.422-.689-2.117-2.082-2.117h-2.193V23.8h2.193c.577 0 1.073-.21 1.474-.63.4-.42.608-.92.608-1.503v-3.554ZM26.965 36.631V12.216h10.377v3.7H30.6v6.657h4.916v3.7H30.6v6.658h6.742v3.7H26.965zM38.895 36.631V12.216h10.376v3.7H42.53v6.657h4.916v3.7H42.53v6.658h6.741v3.7H38.895zM54.923 12.216l4.836 16.417V12.216h3.651v24.415h-3.923l-5.012-15.64v15.64h-3.651V12.216z"
    />
  </g>
  <g fill="#00572D">
    <path
      d="M7.478 71.679c-2.082 0-3.843-.727-5.3-2.198C.72 68.011 0 66.233 0 64.15V46.924c0-2.1.737-3.878 2.194-5.348 1.457-1.47 3.218-2.198 5.284-2.198 2.082 0 3.843.743 5.284 2.214 1.441 1.47 2.178 3.248 2.178 5.332v3.603h-4.884v-3.7a2.66 2.66 0 0 0-.8-1.939 2.612 2.612 0 0 0-1.922-.808c-.753 0-1.377.275-1.906.808-.528.533-.784 1.18-.784 1.94V64.1c0 .759.256 1.39.784 1.922a2.562 2.562 0 0 0 1.906.792c.752 0 1.393-.258 1.921-.792.529-.533.801-1.163.801-1.922v-4.363h4.884v4.411c0 2.1-.737 3.878-2.194 5.332-1.457 1.47-3.218 2.198-5.268 2.198ZM21.841 57.896v13.363h-4.707V39.734h4.707v13.395h5.685V39.734h4.724v31.541h-4.724V57.912h-5.685zM42.434 39.33c2.081 0 3.843.743 5.3 2.213 1.457 1.47 2.178 3.248 2.178 5.333V64.1c0 2.1-.737 3.878-2.194 5.348-1.457 1.47-3.235 2.198-5.284 2.198-2.082 0-3.843-.744-5.285-2.214-1.44-1.47-2.177-3.248-2.177-5.332V46.876c0-2.101.736-3.878 2.193-5.349 1.474-1.47 3.235-2.197 5.269-2.197Zm2.578 7.449c0-.76-.257-1.39-.785-1.923a2.562 2.562 0 0 0-1.906-.792c-.752 0-1.393.259-1.921.792s-.8 1.163-.8 1.923v17.273c0 .76.272 1.406.8 1.923.528.533 1.169.792 1.921.792.753 0 1.378-.259 1.906-.792s.785-1.163.785-1.923V46.78ZM57.357 71.275H52.65V39.734h4.707zM67.573 71.679c-2.081 0-3.843-.727-5.3-2.198-1.457-1.47-2.177-3.248-2.177-5.332V46.924c0-2.1.736-3.878 2.193-5.348 1.457-1.47 3.219-2.198 5.284-2.198 2.082 0 3.844.743 5.285 2.214 1.44 1.47 2.177 3.248 2.177 5.332v3.603h-4.9v-3.7a2.66 2.66 0 0 0-.8-1.939 2.612 2.612 0 0 0-1.922-.808c-.752 0-1.377.275-1.905.808-.529.533-.785 1.18-.785 1.94V64.1c0 .759.256 1.39.785 1.922a2.562 2.562 0 0 0 1.905.792c.753 0 1.393-.258 1.922-.792.528-.533.8-1.163.8-1.922v-4.363h4.884v4.411c0 2.1-.736 3.878-2.193 5.332-1.458 1.47-3.203 2.198-5.253 2.198ZM77.213 71.275V39.701h13.419v4.783h-8.711v8.613h6.357v4.783h-6.357v8.612h8.711v4.783H77.213z"
    />
  </g>
</svg>
